<?xml version="1.0" standalone="no"?>
<!DOCTYPE svg PUBLIC "-//W3C//DTD SVG 20010904//EN"
 "http://www.w3.org/TR/2001/REC-SVG-20010904/DTD/svg10.dtd">
<svg version="1.0" xmlns="http://www.w3.org/2000/svg"
 width="215.000000pt" height="215.000000pt" viewBox="0 0 215.000000 215.000000"
 preserveAspectRatio="xMidYMid meet">
<metadata>
Created by potrace 1.14, written by Peter Selinger 2001-2017
</metadata>
<g transform="translate(0.000000,215.000000) scale(0.100000,-0.100000)"
fill="#000000" stroke="none">
<path d="M970 1710 c-4 -3 -22 -30 -40 -60 l-32 -55 23 -44 c47 -89 53 -92
183 -82 8 1 29 26 46 56 l32 56 73 -6 c75 -6 98 3 76 29 -8 10 -30 12 -81 8
l-69 -5 -18 33 c-39 71 -46 75 -118 75 -36 0 -70 -2 -75 -5z m158 -72 l26 -46
-30 -48 c-27 -45 -33 -49 -69 -50 -61 -1 -69 4 -97 54 -22 40 -24 50 -14 67 7
11 20 33 30 48 16 26 21 28 72 25 54 -3 56 -4 82 -50z"/>
<path d="M360 1675 c-11 -13 -9 -20 12 -43 51 -54 51 -59 -5 -158 -29 -50 -58
-98 -64 -106 -17 -20 -116 -16 -138 6 -21 20 -49 21 -69 0 -21 -21 -20 -40 4
-64 25 -25 34 -25 68 -1 20 15 41 19 81 18 30 -2 56 -7 58 -12 2 -6 30 -55 63
-111 l59 -100 136 0 137 1 69 118 69 118 -68 117 -67 117 -131 3 -130 3 -17
28 c-9 16 -17 38 -17 49 0 11 -7 23 -16 26 -21 8 -20 8 -34 -9z m384 -226 c66
-115 67 -98 -10 -231 -25 -42 -53 -79 -62 -82 -9 -2 -63 -4 -120 -4 l-103 0
-23 37 c-13 20 -40 68 -61 106 l-38 70 59 102 59 103 120 0 120 0 59 -101z"/>
<path d="M1451 1466 c-7 -8 -11 -20 -9 -28 1 -7 -12 -39 -30 -70 l-32 -58
-184 0 -183 0 -90 -157 -90 -158 -109 -3 c-70 -2 -117 1 -131 9 -17 9 -26 9
-38 -1 -34 -28 -1 -72 38 -51 14 8 61 11 131 9 l109 -3 90 -157 90 -158 183 0
183 0 56 -94 c30 -52 55 -106 55 -120 0 -30 24 -44 48 -29 26 16 25 31 -6 60
-16 16 -50 66 -77 113 l-48 85 33 60 c18 33 57 102 87 153 l54 92 79 0 c43 0
82 -4 85 -10 20 -33 73 9 54 43 -11 18 -49 24 -49 7 0 -6 -35 -10 -84 -10
l-83 0 -27 40 c-14 22 -26 42 -26 44 0 2 -27 50 -60 106 -33 56 -60 106 -60
112 0 20 52 102 78 123 15 13 23 29 21 40 -5 24 -41 31 -58 11z m13 -337 c48
-81 86 -151 86 -154 0 -3 -38 -72 -85 -153 l-86 -148 -175 0 -176 1 -84 145
c-46 80 -84 149 -84 154 0 12 161 290 173 297 5 4 86 7 178 7 l168 0 85 -149z"/>
<path d="M1642 841 c-14 -9 -82 -127 -82 -143 0 -7 17 -42 38 -78 l38 -65 83
-1 c92 0 93 1 139 91 l20 41 69 -2 c37 0 77 -4 89 -8 14 -4 26 -1 35 10 11 14
11 18 -6 30 -10 8 -23 10 -29 5 -6 -5 -44 -8 -85 -7 l-73 1 -32 57 c-17 31
-35 60 -39 64 -9 10 -152 14 -165 5z m155 -47 c8 -10 24 -37 35 -58 l20 -39
-23 -41 c-39 -71 -45 -76 -112 -73 l-61 2 -34 57 c-37 62 -37 58 13 138 22 35
24 36 85 35 49 -1 66 -6 77 -21z"/>
<path d="M485 748 c-27 -46 -52 -85 -56 -88 -12 -8 -80 -5 -102 5 -26 11 -49
-12 -36 -37 8 -14 17 -18 32 -13 30 9 95 12 106 6 4 -4 29 -43 55 -89 l48 -82
102 0 102 0 19 -37 c11 -21 22 -49 25 -63 3 -16 13 -26 26 -28 32 -5 39 26 12
53 -13 13 -31 39 -41 57 l-18 34 50 87 49 86 -53 93 -53 93 -110 3 -110 3 -47
-83z m293 -28 l44 -75 -26 -50 c-14 -27 -35 -65 -46 -83 l-20 -33 -91 3 -92 3
-44 77 -45 77 37 68 c55 100 46 94 148 91 l90 -3 45 -75z"/>
</g>
</svg>
